<?xml version="1.0" encoding="utf-8"?>
<!-- Generator: Adobe Illustrator 16.0.0, SVG Export Plug-In . SVG Version: 6.00 Build 0)  -->
<!DOCTYPE svg PUBLIC "-//W3C//DTD SVG 1.1//EN" "http://www.w3.org/Graphics/SVG/1.1/DTD/svg11.dtd">
<svg version="1.1" id="Layer_1" xmlns="http://www.w3.org/2000/svg" xmlns:xlink="http://www.w3.org/1999/xlink" x="0px" y="0px"
	 width="100px" height="100px" viewBox="0 0 100 100" enable-background="new 0 0 100 100" xml:space="preserve">
<g>
	<rect fill="#FBB03B" width="100" height="100"/>
</g>
<g>
	<g>
		<path fill="#42210B" d="M6.014,49.123c0,0,0.009,0.248,0.026,0.73c0.021,0.482,0.02,1.201,0.121,2.125
			c0.158,1.847,0.51,4.586,1.638,7.87c1.104,3.285,2.986,7.098,5.896,10.913c1.454,1.88,3.17,3.855,5.199,5.53
			c2.045,1.719,4.478,3.182,7.183,4.35c2.691,1.204,5.662,2.093,8.785,2.786c1.563,0.351,3.17,0.625,4.808,0.878
			c1.634,0.222,3.314,0.479,5.001,0.483c3.396,0.053,6.882-0.529,10.327-1.491c3.449-0.962,6.862-2.341,10.169-4.053
			c3.297-1.723,6.553-3.703,9.486-6.154c0.735-0.607,1.408-1.273,2.138-1.933c0.725-0.65,1.476-1.275,2.242-1.88
			c1.535-1.209,3.139-2.34,4.767-3.442c1.63-1.089,3.268-2.183,4.908-3.28c1.615-1.112,3.251-2.238,4.616-3.593
			c0.667-0.676,1.279-1.438,1.494-2.26c0.234-0.814-0.123-1.616-0.761-2.261c-0.622-0.648-1.486-1.136-2.319-1.692l-2.513-1.614
			c-0.839-0.549-1.682-1.097-2.49-1.743c-0.79-0.644-1.632-1.397-2.045-2.533c-0.413-1.158-0.09-2.358,0.323-3.302
			c0.42-0.972,0.964-1.838,1.53-2.676l0.845-1.204l0.397-0.627l0.273-0.584c0.333-0.822,0.47-1.738,0.435-2.649
			c-0.061-1.838-0.771-3.649-1.701-5.288c-1.909-3.287-4.694-6.028-7.723-8.252c-3.051-2.217-6.43-3.92-9.941-4.94
			c-1.751-0.535-3.539-0.774-5.367-1.032c-1.786-0.208-3.58-0.332-5.362-0.416c-3.562-0.143-7.062-0.021-10.451,0.302
			c-6.777,0.629-13.143,1.949-18.748,3.97c-2.806,0.99-5.375,2.28-7.708,3.669c-2.34,1.379-4.419,2.921-6.225,4.532
			c-3.612,3.236-5.958,6.87-7.258,10.085c-1.307,3.229-1.696,5.974-1.866,7.821C5.987,48.126,6.014,49.123,6.014,49.123z
			 M5.893,49.125c0,0-0.031-1,0.119-2.867c0.163-1.856,0.542-4.615,1.844-7.871c1.294-3.244,3.643-6.913,7.266-10.186
			c3.614-3.278,8.381-6.149,13.944-8.393c5.583-2.191,11.946-3.75,18.781-4.593c3.42-0.393,6.963-0.586,10.59-0.511
			c1.811,0.035,3.644,0.182,5.502,0.387c1.803,0.247,3.701,0.497,5.533,1.05c3.669,1.055,7.176,2.812,10.348,5.104
			c3.161,2.293,6.05,5.144,8.057,8.673c0.979,1.762,1.758,3.733,1.82,5.862c0.031,1.058-0.131,2.138-0.552,3.149
			c-0.12,0.252-0.241,0.516-0.368,0.756l-0.403,0.624l-0.872,1.226c-0.549,0.802-1.068,1.626-1.442,2.476
			c-0.377,0.847-0.584,1.73-0.31,2.487c0.259,0.767,0.936,1.443,1.675,2.042c0.743,0.604,1.561,1.161,2.382,1.713l2.488,1.653
			c0.81,0.563,1.701,1.068,2.46,1.871c0.369,0.395,0.703,0.864,0.901,1.419c0.195,0.557,0.207,1.186,0.052,1.739
			c-0.324,1.116-1.048,1.927-1.769,2.646c-1.48,1.423-3.149,2.524-4.798,3.625c-1.658,1.071-3.313,2.139-4.96,3.203
			c-1.637,1.073-3.248,2.168-4.784,3.34c-0.768,0.586-1.521,1.19-2.244,1.818c-0.716,0.626-1.427,1.304-2.186,1.908
			c-3.021,2.421-6.284,4.421-9.621,6.125c-6.679,3.333-13.734,5.679-20.679,5.711c-1.742,0.027-3.417-0.193-5.083-0.367
			c-1.656-0.214-3.287-0.447-4.878-0.76c-3.178-0.625-6.23-1.44-9.024-2.621c-2.79-1.179-5.328-2.671-7.471-4.442
			c-2.211-1.761-3.826-3.798-5.303-5.774c-2.913-3.98-4.525-8.02-5.509-11.371c-0.935-3.383-1.293-6.118-1.409-7.987
			c-0.086-0.934-0.071-1.65-0.084-2.132C5.898,49.374,5.893,49.125,5.893,49.125z"/>
	</g>
	<g>
		<path fill="#FFFFFF" d="M79.07,22.277c-3.051-2.217-6.43-3.92-9.941-4.94c-1.751-0.535-3.539-0.774-5.367-1.032
			c-1.786-0.208-3.58-0.332-5.362-0.416c-3.562-0.143-7.062-0.021-10.451,0.302c-6.777,0.629-13.143,1.949-18.748,3.97
			c-2.806,0.99-5.375,2.28-7.708,3.669c-2.34,1.379-4.419,2.921-6.225,4.532c-3.612,3.236-5.958,6.87-7.258,10.085
			c-1.307,3.229-1.696,5.974-1.866,7.821c-0.157,1.858-0.13,2.854-0.13,2.854s0.009,0.248,0.026,0.73
			c0.021,0.482,0.02,1.201,0.121,2.125c0.158,1.847,0.51,4.586,1.638,7.87c1.104,3.285,2.986,7.098,5.896,10.913
			c1.454,1.88,3.17,3.855,5.199,5.53c2.045,1.719,4.478,3.182,7.183,4.35c2.691,1.204,5.662,2.093,8.785,2.786
			c1.563,0.351,3.17,0.625,4.808,0.878c1.634,0.222,3.314,0.479,5.001,0.483c3.396,0.053,6.882-0.529,10.327-1.491
			c3.449-0.962,6.862-2.341,10.169-4.053c3.297-1.723,6.553-3.703,9.486-6.154c0.735-0.607,1.408-1.273,2.138-1.933
			c0.725-0.65,1.476-1.275,2.242-1.88c1.535-1.209,3.139-2.34,4.767-3.442c1.63-1.089,3.268-2.183,4.908-3.28
			c1.615-1.112,3.251-2.238,4.616-3.593c0.667-0.676,1.279-1.438,1.494-2.26c0.234-0.814-0.123-1.616-0.761-2.261
			c-0.622-0.648-1.486-1.136-2.319-1.692l-2.513-1.614c-0.839-0.549-1.682-1.097-2.49-1.743c-0.79-0.644-1.632-1.397-2.045-2.533
			c-0.413-1.158-0.09-2.358,0.323-3.302c0.42-0.972,0.964-1.838,1.53-2.676l0.845-1.204l0.397-0.627l0.273-0.584
			c0.333-0.822,0.47-1.738,0.435-2.649c-0.061-1.838-0.771-3.649-1.701-5.288C84.884,27.243,82.099,24.501,79.07,22.277z"/>
	</g>
	<g>
		<g>
			<path fill="#CCCCCC" d="M85.139,28.875c0.93,1.639,1.641,3.45,1.701,5.288c0.035,0.911-0.102,1.828-0.435,2.65l-0.272,0.583
				l-0.399,0.626l-0.844,1.205c-0.566,0.838-1.109,1.704-1.531,2.677c-0.412,0.942-0.735,2.143-0.322,3.301
				c0.412,1.135,1.256,1.889,2.045,2.533c0.045,0.037,0.094,0.067,0.139,0.104c-0.207-0.297-0.396-0.614-0.529-0.982
				c-0.413-1.158-0.09-2.358,0.323-3.302c0.42-0.972,0.964-1.838,1.53-2.676l0.845-1.204l0.397-0.627l0.273-0.584
				c0.333-0.822,0.47-1.738,0.435-2.649c-0.061-1.838-0.771-3.649-1.701-5.288c-1.265-2.176-2.917-4.109-4.766-5.816
				C83.205,25.99,84.267,27.373,85.139,28.875z"/>
		</g>
		<g>
			<path fill="#CCCCCC" d="M94.058,54.442c-0.319-0.331-0.701-0.619-1.107-0.897c0.253,0.473,0.363,0.983,0.214,1.504
				c-0.215,0.821-0.827,1.584-1.494,2.26c-1.365,1.354-3.001,2.48-4.615,3.594c-1.642,1.098-3.279,2.191-4.909,3.28
				c-1.628,1.101-3.231,2.232-4.768,3.44c-0.766,0.606-1.517,1.229-2.242,1.881c-0.728,0.659-1.401,1.325-2.138,1.934
				c-2.934,2.45-6.19,4.43-9.486,6.152c-3.306,1.713-6.719,3.091-10.168,4.054c-3.444,0.961-6.931,1.543-10.328,1.492
				c-1.687-0.005-3.367-0.263-5-0.484c-1.638-0.253-3.245-0.527-4.807-0.878c-3.124-0.694-6.094-1.582-8.785-2.786
				c-2.705-1.169-5.138-2.632-7.183-4.35c-0.405-0.335-0.788-0.689-1.169-1.042c0.867,0.94,1.806,1.855,2.823,2.696
				c2.045,1.719,4.478,3.182,7.183,4.35c2.691,1.204,5.662,2.093,8.785,2.786c1.563,0.351,3.17,0.625,4.808,0.878
				c1.634,0.222,3.314,0.479,5.001,0.483c3.396,0.053,6.882-0.529,10.327-1.491c3.449-0.962,6.862-2.341,10.169-4.053
				c3.297-1.723,6.553-3.703,9.486-6.154c0.735-0.607,1.408-1.273,2.138-1.933c0.725-0.65,1.476-1.275,2.242-1.88
				c1.535-1.209,3.139-2.34,4.767-3.442c1.63-1.089,3.268-2.183,4.908-3.28c1.615-1.112,3.251-2.238,4.616-3.593
				c0.667-0.676,1.279-1.438,1.494-2.26C95.053,55.889,94.695,55.087,94.058,54.442z"/>
		</g>
	</g>
</g>
<g>
	<circle fill="#FBB03B" cx="38.851" cy="51.486" r="17.562"/>
	<path fill="#42210B" d="M38.851,69.549c-9.959,0-18.062-8.103-18.062-18.063c0-9.959,8.103-18.061,18.062-18.061
		s18.062,8.102,18.062,18.061C56.912,61.446,48.81,69.549,38.851,69.549z M38.851,34.425c-9.408,0-17.062,7.653-17.062,17.061
		c0,9.408,7.654,17.063,17.062,17.063s17.062-7.654,17.062-17.063C55.912,42.079,48.258,34.425,38.851,34.425z"/>
</g>
<g>
	<path fill="#E37805" d="M52.73,41.567c1.005,2.281,1.538,4.763,1.538,7.276c0,9.96-8.103,18.063-18.062,18.063
		c-2.513,0-4.995-0.532-7.276-1.538c2.862,2.054,6.309,3.182,9.919,3.182c9.408,0,17.062-7.654,17.062-17.063
		C55.912,47.875,54.784,44.428,52.73,41.567z"/>
</g>
<g>
	<circle fill="#FFFFFF" cx="33.515" cy="49.077" r="1.426"/>
</g>
<g>
	
		<ellipse transform="matrix(0.671 0.7414 -0.7414 0.671 40.0808 -8.6259)" fill="#FFFFFF" cx="29.761" cy="40.855" rx="2.172" ry="3.848"/>
</g>
</svg>
