<?xml version="1.0" encoding="utf-8"?>
<!-- Generator: Adobe Illustrator 16.0.0, SVG Export Plug-In . SVG Version: 6.00 Build 0)  -->
<!DOCTYPE svg PUBLIC "-//W3C//DTD SVG 1.1//EN" "http://www.w3.org/Graphics/SVG/1.1/DTD/svg11.dtd">
<svg version="1.1" id="Layer_1" focusable="false" xmlns="http://www.w3.org/2000/svg" xmlns:xlink="http://www.w3.org/1999/xlink"
	 x="0px" y="0px" width="30px" height="30px" viewBox="0 0 30 30" enable-background="new 0 0 30 30" xml:space="preserve">
<path fill="#EC6C54" d="M26.859,3.768C23.473,0.92,18.24,1.348,15,4.646C11.76,1.348,6.527,0.914,3.141,3.768
	c-4.406,3.709-3.762,9.756-0.621,12.961l10.277,10.471c0.586,0.598,1.371,0.932,2.203,0.932c0.838,0,1.617-0.328,2.203-0.926
	L27.48,16.734C30.615,13.529,31.271,7.482,26.859,3.768z M25.477,14.754L15.199,25.225c-0.141,0.141-0.258,0.141-0.398,0
	L4.523,14.754c-2.139-2.18-2.572-6.305,0.428-8.83c2.279-1.916,5.795-1.629,7.998,0.615L15,8.631l2.051-2.092
	c2.215-2.256,5.73-2.531,7.998-0.621C28.043,8.443,27.598,12.592,25.477,14.754z"/>
</svg>
